<?xml version="1.0" encoding="UTF-8"?>
<svg width="1083px" height="234px" viewBox="0 0 1083 234" version="1.1" xmlns="http://www.w3.org/2000/svg" xmlns:xlink="http://www.w3.org/1999/xlink">
    <!-- Generator: Sketch 52.6 (67491) - http://www.bohemiancoding.com/sketch -->
    <title>Group</title>
    <desc>Created with Sketch.</desc>
    <g id="Grocery" stroke="none" stroke-width="1" fill="none" fill-rule="evenodd">
        <g id="Artboard-Copy" transform="translate(-262.000000, -545.000000)" fill="#FFFFFF">
            <g id="Group" transform="translate(262.000000, 545.000000)">
                <g id="Group-2">
                    <g id="Screenshot2020-03-31153758">
                        <path d="M71.4808592,233.609566 C42.2386895,229.835373 17.2853714,215.259177 7.79791192,196.388209 C2.33937357,185.325918 2.59930397,181.812013 8.70766831,179.339266 C19.3648146,175.044494 50.8163927,166.585095 53.1557662,167.365962 C54.5853834,167.756396 56.6648266,169.708565 57.8345134,171.53059 C64.3327733,181.42158 73.8202328,186.497219 85.7770311,186.497219 C104.75195,186.497219 114.49934,177.387097 116.318853,157.865406 C117.358574,147.583982 116.578783,146.542825 110.860314,151.097887 C100.852994,159.036707 78.2390496,162.290323 60.5637826,158.385984 C45.0979239,154.87208 33.401056,148.36485 22.0940838,136.912125 C6.23832953,120.904338 0,104.896552 0,80.1690768 C0,56.4827586 7.01812072,38.5228031 22.6139446,22.9054505 C38.8595944,6.63737486 57.574583,-0.650723026 80.0585623,0.52057842 C92.6651866,1.04115684 102.412577,4.42491657 111.380175,11.3225806 C115.409096,14.3159066 115.798992,14.4460512 116.448818,12.2335929 C118.788192,4.68520578 122.427217,3.77419355 147.640466,4.29477197 C160.766951,4.55506118 166.615385,5.2057842 168.045002,6.50723026 C170.124445,8.06896552 170.25441,15.487208 170.25441,89.4093437 C170.25441,143.159066 169.734549,172.832036 168.824793,177.387097 C163.49622,203.416018 142.311892,223.718576 113.069723,231.006674 C104.621985,233.219132 79.9285971,234.650723 71.4808592,233.609566 Z M93.0550822,109.061179 C115.798992,103.204672 123.207008,75.483871 106.441498,58.8253615 C100.593064,52.8387097 95.2644906,50.8865406 85.1272051,50.8865406 C75.3798152,50.8865406 69.2714509,53.3592881 62.7731909,60.2569522 C58.0944438,65.0723026 54.5853834,73.6618465 54.5853834,80.1690768 C54.5853834,90.1902113 61.7334693,101.773081 70.8310332,106.458287 C79.4087363,111.013348 83.6975879,111.533927 93.0550822,109.061179 Z" id="Shape" fill-rule="nonzero"></path>
                        <path d="M949.395776,232.30812 C931.850474,228.403782 914.954998,217.992214 914.954998,211.094549 C914.954998,207.580645 924.312492,190.531702 931.200648,181.551724 C935.619465,175.825362 939.648386,175.825362 951.215289,181.681869 C960.832713,186.627364 965.901356,187.278087 972.789512,184.414905 C977.468259,182.462736 980.067563,178.558398 983.966519,167.105673 L986.305892,160.208009 L974.868955,160.208009 C964.731669,160.208009 963.172087,159.94772 960.832713,157.344828 C959.143166,155.522803 954.464419,143.159066 949.395776,127.021135 C944.587063,112.054505 936.659186,87.0667408 931.850474,71.7096774 C912.225729,10.0211346 911.705868,7.5483871 918.723989,5.59621802 C920.543502,5.0756396 933.020161,4.68520578 946.406576,4.68520578 C969.020521,4.68520578 970.969999,4.81535039 973.309372,7.28809789 C975.648746,9.63070078 981.49718,29.67297 997.612865,90.320356 C999.692308,97.9988877 1001.64179,104.245829 1002.03168,104.245829 C1002.94144,104.245829 1005.28081,95.0055617 1017.10764,45.160178 C1023.21601,19.0011123 1026.07524,9.37041157 1028.02472,7.41824249 C1030.49406,4.81535039 1032.18361,4.68520578 1054.66759,4.68520578 C1075.46202,4.68520578 1078.84111,4.94549499 1080.79059,6.89766407 C1084.81951,10.9321468 1085.33937,8.71968854 1062.98536,85.374861 C1029.06444,202.114572 1030.88396,196.518354 1021.0066,209.532814 C1008.91984,225.150167 993.453978,232.698554 971.099964,233.739711 C962.522261,234.130145 955.634105,233.739711 949.395776,232.30812 Z" id="Path"></path>
                        <path d="M360.653426,163.461624 C339.599064,158.906563 317.24505,143.939933 305.938078,126.630701 C290.602184,103.595106 289.042602,72.1001112 301.909156,45.810901 C308.277451,32.6662959 324.912997,16.3982202 339.209168,9.37041157 C364.682347,-2.99332592 392.624865,-2.99332592 418.357974,9.37041157 C434.213729,17.0489433 448.5099,31.3648498 455.917917,46.9822024 C462.416177,60.647386 464.49562,69.3670745 464.49562,82.7719689 C464.49562,96.1768632 462.416177,104.896552 455.917917,118.561735 C446.170527,138.994438 425.24613,155.783092 401.592464,162.160178 C390.675387,165.153504 371.310572,165.674082 360.653426,163.461624 Z M401.440582,76.0582209 C401.440582,76.0582209 405.426229,76.4825836 410.42934,69.8457661 C412.576538,66.9957782 421.187998,56.4396866 423,54.2211072 L421.636006,52.8550375 L402.768411,71.750263 L400.609339,69.5879049 L419.024068,51.1456935 L419.462899,50.6786241 L418.022258,49.2357907 L399.191368,68.0942561 L397.032295,65.9313574 L415.863186,47.0718109 L414.344818,45.5522137 L395.513388,64.4106791 L393.354315,62.248321 L412.185206,43.3898557 L410.797462,42 C408.897478,43.5547355 397.970952,52.5004108 395.06592,54.6962854 C388.439187,59.7075503 389.352474,63.6452043 389.352474,63.6452043 C389.679574,73.9585712 385.585433,75.1586799 385.585433,75.1586799 C352.405886,46.0192831 344.397346,46.1841629 341.127971,45.856025 C337.859135,45.5289684 339.330003,47.6572693 339.330003,47.6572693 L374.887228,83.4334837 L346.304347,112.262042 C346.304347,112.262042 342.817985,115.597479 346.304347,119.44053 C349.79017,123.285202 352.951592,118.810743 352.951592,118.810743 L381.515581,90.1027366 L409.612671,118.372865 C409.612671,118.372865 411.819243,121.075272 415.088619,117.882551 C418.355835,114.69091 415.005494,111.744157 415.005494,111.744157 L393.509768,90.2281533 C387.462746,87.2273409 387.983083,85.470425 387.818993,83.6697213 C387.655983,81.8700988 391.142345,75.7306236 401.440582,76.0582209 Z" id="Shape" fill-rule="nonzero"></path>
                        <path d="M542.9946,164.112347 C524.799472,160.858732 509.723509,152.919911 497.116885,140.16574 C481.0012,123.767519 473.983079,106.197998 474.113045,82.1212458 C474.24301,57.5239155 480.481339,42.1668521 497.116885,25.378198 C505.304692,17.0489433 509.853474,13.6651835 518.561142,9.37041157 C555.471259,-8.71968854 601.478939,0.26028921 625.132605,30.1935484 C633.710308,41.1256952 632.540622,43.5984427 612.136085,59.0856507 C595.76047,71.4493882 594.200888,71.7096774 584.063603,62.4694105 C574.836073,54.1401557 569.5075,51.9276974 559.24025,52.057842 C549.49286,52.1879867 544.034321,54.2703003 538.315853,59.996663 C532.467419,65.8531702 530.128045,70.9288098 529.348254,79.5183537 C527.528741,98.6496107 540.655226,113.355951 559.50018,113.355951 C568.467779,113.355951 574.836073,110.753059 581.594264,104.375973 C588.222489,98.1290323 592.641306,95.1357063 595.370575,95.1357063 C599.269531,95.1357063 627.212048,116.869855 629.031561,121.164627 C631.370935,126.760845 628.901596,131.836485 619.154206,141.467186 C610.186607,150.317019 594.980679,158.906563 582.763951,162.160178 C573.406456,164.632925 551.442338,165.674082 542.9946,164.112347 Z" id="Path"></path>
                        <path d="M702.851794,164.112347 C669.970599,158.125695 644.367455,134.829811 637.479299,104.766407 C634.75003,93.4438265 634.75003,73.4015573 637.349334,62.0789766 C644.367455,31.7552836 668.540982,8.45939933 699.732629,1.82202447 C712.98908,-1.04115684 733.393616,0.130144605 745.480379,4.29477197 C778.231609,15.7474972 797.856354,44.2491657 797.986319,80.2992214 C797.986319,97.21802 802.924997,95.7864294 742.881075,96.1768632 C714.548662,96.4371524 691.414857,96.9577308 691.414857,97.3481646 C691.414857,100.60178 697.523221,109.711902 701.552142,112.444939 C714.288732,121.164627 730.274451,119.863181 743.141006,108.931034 C746.26017,106.328142 750.029161,104.245829 751.588744,104.245829 C754.188048,104.245829 772.643106,114.527253 784.729869,122.726363 C792.917677,128.322581 792.267851,131.315907 781.090844,142.378198 C771.343454,151.878754 759.386655,158.516129 745.350414,162.160178 C735.99292,164.502781 711.299532,165.674082 702.851794,164.112347 Z M743.400936,61.948832 C743.400936,61.4282536 742.621145,59.6062291 741.581423,57.6540601 C737.292572,49.5850945 728.065043,44.3793103 717.797792,44.3793103 C707.660506,44.3793103 694.014161,53.7497219 694.014161,60.647386 C694.014161,62.3392659 697.393256,62.5995551 718.707548,62.5995551 C732.353894,62.5995551 743.400936,62.3392659 743.400936,61.948832 Z" id="Shape" fill-rule="nonzero"></path>
                        <path d="M193.25825,157.865406 C191.308772,155.652948 191.048842,148.494994 191.048842,82.6418242 C191.048842,21.7341491 191.308772,9.37041157 192.868355,7.15795328 C194.557902,4.94549499 196.50738,4.68520578 216.781951,4.68520578 C241.085443,4.68520578 242.385095,5.0756396 243.814713,12.7541713 L244.724469,17.3092325 L249.403216,12.6240267 C256.551302,5.72636263 265.25897,2.34260289 276.565943,2.21245829 C289.952358,2.08231368 289.822393,1.56173526 289.822393,30.7141268 C289.822393,48.8042269 289.432497,54.9210234 288.00288,56.7430478 C286.573263,58.8253615 283.843994,59.4760845 273.706708,60.1268076 C259.020641,61.298109 252.26245,64.2914349 248.623425,71.5795328 C246.543982,75.7441602 246.284051,80.9499444 245.894156,115.958843 C245.50426,149.926585 245.114365,155.913237 243.424817,157.865406 C241.605304,159.94772 238.616105,160.208009 218.341534,160.208009 C197.677067,160.208009 195.077763,159.94772 193.25825,157.865406 Z" id="Path"></path>
                        <path d="M813.452178,157.995551 C812.022561,156.303671 811.5027,142.508343 811.24277,83.4226919 C810.982839,13.4048943 810.982839,10.8020022 813.452178,7.80867631 C815.791552,4.94549499 816.961238,4.68520578 830.99748,4.29477197 C848.932677,3.64404894 859.589824,4.81535039 862.319093,7.41824249 C863.358814,8.58954394 864.268571,11.192436 864.268571,13.2747497 C864.268571,17.8298109 865.048362,17.9599555 868.297492,13.7953281 C871.936517,9.24026696 885.842794,2.86318131 894.420497,1.95216908 C904.297852,0.780867631 909.366495,2.86318131 910.406216,8.45939933 C911.835833,15.8776418 910.536181,55.8320356 908.846634,57.5239155 C908.066843,58.4349277 901.308652,59.6062291 894.030601,60.2569522 C878.174847,61.5583982 873.885995,63.6407119 869.857074,71.7096774 C866.99784,77.3058954 866.867875,78.6073415 866.867875,116.219132 C866.867875,153.310345 866.73791,155.132369 864.268571,157.605117 C861.799232,160.077864 859.979719,160.208009 838.405496,160.208009 C818.390856,160.208009 815.01176,159.94772 813.452178,157.995551 Z" id="Path"></path>
                    </g>
                </g>
            </g>
        </g>
    </g>
</svg>